# xmcd
#
# Track frame offsets:
#	150
#	17898
#	32877
#	43292
#	62100
#	75918
#	97033
#	107225
#	124159
#	138838
#	152668
#	165926
#	180928
#
# Disc length: 2506 seconds
#
# Revision: 0
# Processed by: cddbd v1.5.1PL0 Copyright (c) Steve Scherf et al.
# Submitted via: dBpowerAMP V4.0
#
DISCID=a009c80d
DTITLE=Foggy Hogtown Boys - Northern White Clouds
DYEAR=1900
DGENRE=Bluegrass
TTITLE0=Country Rebel
TTITLE1=Lily Hoskins
TTITLE2=Head On Down The Road
TTITLE3=I Don't Want To Miss For Another Day
TTITLE4=Murray's Breakdown
TTITLE5=When One Love Is Over
TTITLE6=Cold Creek
TTITLE7=Jewel In The Crown
TTITLE8=Lonesome Scenes of Winter
TTITLE9=The Old Dominion Waltz
TTITLE10=Sundown
TTITLE11=Suffering Succotash
TTITLE12=High Times in Hogtown
EXTD=
EXTT0=
EXTT1=
EXTT2=
EXTT3=
EXTT4=
EXTT5=
EXTT6=
EXTT7=
EXTT8=
EXTT9=
EXTT10=
EXTT11=
EXTT12=
PLAYORDER=
